g Cylinder001
v 0.1200528 0.2079375 -0.03855534
v 0.04169387 0.2364578 0.03855535
v 0.04169387 0.2364578 -0.03855534
v 0.1200528 0.2079375 0.03855535
v 0.1839315 0.1543369 -0.03855534
v 0.1839315 0.1543369 0.03855535
v 0.2256254 0.08212093 -0.03855534
v 0.2256254 0.08212093 0.03855535
v 0.2401056 0 -0.03855534
v 0.2401056 0 0.03855535
v 0.2256254 -0.0821211 -0.03855534
v 0.2256254 -0.0821211 0.03855535
v 0.1839314 -0.154337 -0.03855534
v 0.1839314 -0.154337 0.03855534
v 0.1200527 -0.2079376 -0.03855534
v 0.1200527 -0.2079376 0.03855535
v 0.04169377 -0.2364578 -0.03855534
v 0.04169377 -0.2364578 0.03855535
v -0.04169399 -0.2364578 -0.03855534
v -0.04169399 -0.2364578 0.03855535
v -0.1200529 -0.2079375 -0.03855534
v -0.1200529 -0.2079375 0.03855535
v -0.1839316 -0.1543368 -0.03855534
v -0.1839316 -0.1543368 0.03855534
v -0.2256254 -0.0821209 -0.03855534
v -0.2256254 -0.0821209 0.03855535
v -0.2401056 3.625493E-08 -0.03855534
v -0.2401056 3.625493E-08 0.03855535
v -0.2256254 0.08212094 -0.03855534
v -0.2256254 0.08212094 0.03855535
v -0.1839315 0.1543369 -0.03855534
v -0.1839315 0.1543369 0.03855535
v -0.1200528 0.2079375 -0.03855534
v -0.1200528 0.2079375 0.03855535
v -0.04169392 0.2364578 -0.03855534
v -0.04169392 0.2364578 0.03855535
v 0.04169387 0.2364578 -0.03855534
v 0.04169387 0.2364578 0.03855535
vt 0.9166667 0
vt 0.9722222 1
vt 0.9722222 0
vt 0.9166667 1
vt 0.8611111 0
vt 0.8611111 1
vt 0.8055556 0
vt 0.8055556 1
vt 0.75 0
vt 0.75 1
vt 0.6944444 0
vt 0.6944444 1
vt 0.6388888 0
vt 0.6388888 1
vt 0.5833333 0
vt 0.5833333 1
vt 0.5277777 0
vt 0.5277777 1
vt 0.4722221 0
vt 0.4722221 1
vt 0.4166666 0
vt 0.4166666 1
vt 0.3611111 0
vt 0.3611111 1
vt 0.3055555 0
vt 0.3055555 1
vt 0.25 0
vt 0.25 1
vt 0.1944444 0
vt 0.1944444 1
vt 0.1388889 0
vt 0.1388889 1
vt 0.08333334 0
vt 0.08333334 1
vt 0.02777782 0
vt 0.02777782 1
vt -0.02777779 0
vt -0.02777779 1
vn 0.5000001 0.8660253 0
vn 0.173648 0.9848078 0
vn 0.173648 0.9848077 0
vn 0.5000001 0.8660253 0
vn 0.7660445 0.6427876 0
vn 0.7660445 0.6427876 0
vn 0.9396926 0.3420201 0
vn 0.9396926 0.3420201 0
vn 1 -1.637562E-07 0
vn 1 -1.396744E-07 0
vn 0.9396924 -0.3420206 0
vn 0.9396924 -0.3420206 0
vn 0.766044 -0.6427882 0
vn 0.766044 -0.6427881 0
vn 0.4999994 -0.8660258 0
vn 0.4999995 -0.8660258 0
vn 0.1736476 -0.9848078 0
vn 0.1736477 -0.9848078 0
vn -0.1736485 -0.9848077 0
vn -0.1736485 -0.9848077 0
vn -0.5000002 -0.8660253 0
vn -0.5000002 -0.8660253 0
vn -0.7660446 -0.6427873 0
vn -0.7660446 -0.6427873 0
vn -0.9396926 -0.3420199 0
vn -0.9396926 -0.3420199 0
vn -1 1.637562E-07 0
vn -1 1.444907E-07 0
vn -0.9396926 0.3420202 0
vn -0.9396926 0.3420202 0
vn -0.7660445 0.6427876 0
vn -0.7660445 0.6427876 0
vn -0.5000001 0.8660253 0
vn -0.5000001 0.8660253 0
vn -0.1736483 0.9848077 0
vn -0.1736483 0.9848077 0
vn 0.173648 0.9848077 0
vn 0.173648 0.9848078 0
g Cylinder001_0
f 3/3/3 2/2/2 1/1/1
f 2/2/2 4/4/4 1/1/1
f 1/1/1 4/4/4 5/5/5
f 4/4/4 6/6/6 5/5/5
f 5/5/5 6/6/6 7/7/7
f 6/6/6 8/8/8 7/7/7
f 7/7/7 8/8/8 9/9/9
f 8/8/8 10/10/10 9/9/9
f 9/9/9 10/10/10 11/11/11
f 10/10/10 12/12/12 11/11/11
f 11/11/11 12/12/12 13/13/13
f 12/12/12 14/14/14 13/13/13
f 13/13/13 14/14/14 15/15/15
f 14/14/14 16/16/16 15/15/15
f 15/15/15 16/16/16 17/17/17
f 16/16/16 18/18/18 17/17/17
f 17/17/17 18/18/18 19/19/19
f 18/18/18 20/20/20 19/19/19
f 19/19/19 20/20/20 21/21/21
f 20/20/20 22/22/22 21/21/21
f 21/21/21 22/22/22 23/23/23
f 22/22/22 24/24/24 23/23/23
f 23/23/23 24/24/24 25/25/25
f 24/24/24 26/26/26 25/25/25
f 25/25/25 26/26/26 27/27/27
f 26/26/26 28/28/28 27/27/27
f 27/27/27 28/28/28 29/29/29
f 28/28/28 30/30/30 29/29/29
f 29/29/29 30/30/30 31/31/31
f 30/30/30 32/32/32 31/31/31
f 31/31/31 32/32/32 33/33/33
f 32/32/32 34/34/34 33/33/33
f 33/33/33 34/34/34 35/35/35
f 34/34/34 36/36/36 35/35/35
f 35/35/35 36/36/36 37/37/37
f 36/36/36 38/38/38 37/37/37
