g FXMesh_Ring_01
v 0.354439 0.6139063 0.1164488
v 0.1473608 0.8357243 0.2186902
v 0.1230952 0.6981084 0.1164488
v 0.4243082 0.7349237 0.2186902
v 0.543032 0.4556578 0.1164488
v 0.1594935 0.9045321 0.3377002
v 0.6500781 0.54548 0.2186902
v 0.6661276 0.2424504 0.1164488
v 0.4592431 0.7954321 0.3377002
v 0.1594933 0.9045318 0.4622998
v 0.797439 0.2902441 0.2186903
v 0.7088781 -1.525879E-07 0.1164488
v 0.7036011 0.5903914 0.3377003
v 0.4592429 0.7954318 0.4622998
v 0.1473607 0.8357243 0.5813099
v 0.8486167 0 0.2186902
v 0.6661271 -0.2424512 0.1164488
v 0.8630946 0.3141408 0.3377003
v 0.7036008 0.590391 0.4622997
v 0.4243082 0.7349235 0.5813097
v 0.1230952 0.6981084 0.6835512
v 0.354439 0.6139063 0.6835512
v 0.6500781 0.54548 0.5813098
v 0.543032 0.4556578 0.6835512
v 0.7974384 -0.2902446 0.2186902
v 0.5430318 -0.4556584 0.1164488
v 0.9184862 1.525879E-07 0.3377002
v 0.8630942 0.3141406 0.4622998
v 0.7974389 0.2902439 0.5813098
v 0.6661276 0.2424504 0.6835512
v 0.6500779 -0.5454807 0.2186902
v 0.3544387 -0.6139067 0.1164488
v 0.8630942 -0.3141413 0.3377002
v 0.9184859 0 0.4622998
v 0.8486167 -7.629394E-08 0.5813099
v 0.7088781 -1.525879E-07 0.6835512
v 0.4243079 -0.7349239 0.2186902
v 0.123095 -0.6981087 0.1164488
v 0.703601 -0.5903918 0.3377003
v 0.8630939 -0.3141415 0.4622998
v 0.7974383 -0.2902446 0.5813097
v 0.6661271 -0.2424512 0.6835512
v 0.1473605 -0.8357243 0.2186902
v -0.1230956 -0.6981087 0.1164488
v 0.4592426 -0.7954325 0.3377002
v 0.7036007 -0.5903918 0.4622999
v 0.6500779 -0.5454807 0.5813099
v 0.5430318 -0.4556584 0.6835513
v -0.1473609 -0.8357242 0.2186902
v -0.3544393 -0.6139064 0.1164488
v 0.1594931 -0.9045321 0.3377002
v 0.4592423 -0.7954325 0.4622997
v 0.4243078 -0.7349239 0.5813098
v 0.3544387 -0.6139067 0.6835512
v -0.4243085 -0.7349235 0.2186902
v -0.5430321 -0.455658 0.1164488
v -0.1594938 -0.904532 0.3377002
v 0.1594927 -0.9045321 0.4622997
v 0.1473602 -0.8357243 0.5813099
v 0.123095 -0.6981087 0.6835512
v -0.6500781 -0.54548 0.2186903
v -0.6661274 -0.2424505 0.1164488
v -0.4592431 -0.7954321 0.3377002
v -0.1594939 -0.904532 0.4622997
v -0.1473611 -0.8357242 0.5813098
v -0.1230956 -0.6981087 0.6835513
v -0.7974388 -0.2902438 0.2186902
v -0.708878 -7.629394E-08 0.1164488
v -0.7036011 -0.590391 0.3377002
v -0.4592433 -0.7954321 0.4622996
v -0.4243086 -0.7349235 0.5813097
v -0.3544393 -0.6139064 0.6835511
v -0.8486166 2.288818E-07 0.2186902
v -0.6661274 0.2424505 0.1164488
v -0.8630944 -0.3141402 0.3377003
v -0.7036011 -0.590391 0.4622999
v -0.6500782 -0.5454801 0.5813099
v -0.5430321 -0.455658 0.6835513
v -0.7974388 0.2902441 0.2186902
v -0.5430321 0.4556576 0.1164488
v -0.9184858 1.525879E-07 0.3377002
v -0.8630944 -0.3141403 0.4622998
v -0.7974388 -0.2902438 0.5813099
v -0.6661274 -0.2424505 0.6835513
v -0.6500781 0.54548 0.2186903
v -0.3544391 0.6139061 0.1164488
v -0.8630944 0.3141406 0.3377002
v -0.9184858 1.525879E-07 0.4622998
v -0.8486166 0 0.5813099
v -0.708878 -7.629394E-08 0.6835512
v -0.4243083 0.7349235 0.2186902
v -0.1230954 0.6981085 0.1164488
v -0.703601 0.5903915 0.3377002
v -0.8630944 0.3141403 0.4622997
v -0.7974388 0.2902441 0.5813097
v -0.6661274 0.2424505 0.6835513
v -0.1473608 0.8357245 0.2186903
v 0.1230952 0.6981084 0.1164488
v 0.1473608 0.8357243 0.2186902
v -0.4592431 0.7954318 0.3377002
v -0.703601 0.5903912 0.4622998
v -0.6500781 0.5454799 0.5813099
v -0.5430321 0.4556576 0.6835511
v -0.1594933 0.9045323 0.3377003
v 0.1594935 0.9045321 0.3377002
v -0.4592431 0.7954317 0.4622997
v -0.4243083 0.7349235 0.5813097
v -0.3544391 0.6139061 0.6835512
v -0.1594936 0.9045321 0.4622998
v 0.1594933 0.9045318 0.4622998
v -0.1473608 0.8357245 0.5813099
v -0.1230954 0.6981085 0.6835513
v 0.1473607 0.8357243 0.5813099
v 0.1230952 0.6981084 0.6835512
vt 0.9166667 0
vt 0.9722222 0.2
vt 0.9722222 0
vt 0.9166667 0.2
vt 0.861111 0
vt 0.9722222 0.4
vt 0.861111 0.2
vt 0.8055555 0
vt 0.9166667 0.4
vt 0.9722222 0.6
vt 0.8055555 0.2
vt 0.75 0
vt 0.861111 0.4
vt 0.9166667 0.6
vt 0.9722222 0.8
vt 0.75 0.2
vt 0.6944444 0
vt 0.8055555 0.4
vt 0.861111 0.6
vt 0.9166667 0.8
vt 0.9722222 1
vt 0.9166667 1
vt 0.861111 0.8
vt 0.861111 1
vt 0.6944444 0.2
vt 0.6388888 0
vt 0.75 0.4
vt 0.8055555 0.6
vt 0.8055555 0.8
vt 0.8055555 1
vt 0.6388888 0.2
vt 0.5833333 0
vt 0.6944444 0.4
vt 0.75 0.6
vt 0.75 0.8
vt 0.75 1
vt 0.5833333 0.2
vt 0.5277777 0
vt 0.6388888 0.4
vt 0.6944444 0.6
vt 0.6944444 0.8
vt 0.6944444 1
vt 0.5277777 0.2
vt 0.4722221 0
vt 0.5833333 0.4
vt 0.6388888 0.6
vt 0.6388888 0.8
vt 0.6388888 1
vt 0.4722221 0.2
vt 0.4166666 0
vt 0.5277777 0.4
vt 0.5833333 0.6
vt 0.5833333 0.8
vt 0.5833333 1
vt 0.4166666 0.2
vt 0.3611111 0
vt 0.4722221 0.4
vt 0.5277777 0.6
vt 0.5277777 0.8
vt 0.5277777 1
vt 0.3611111 0.2
vt 0.3055555 0
vt 0.4166666 0.4
vt 0.4722221 0.6
vt 0.4722221 0.8
vt 0.4722221 1
vt 0.3055555 0.2
vt 0.25 0
vt 0.3611111 0.4
vt 0.4166666 0.6
vt 0.4166666 0.8
vt 0.4166666 1
vt 0.25 0.2
vt 0.1944444 0
vt 0.3055555 0.4
vt 0.3611111 0.6
vt 0.3611111 0.8
vt 0.3611111 1
vt 0.1944444 0.2
vt 0.1388889 0
vt 0.25 0.4
vt 0.3055555 0.6
vt 0.3055555 0.8
vt 0.3055555 1
vt 0.1388889 0.2
vt 0.08333335 0
vt 0.1944444 0.4
vt 0.25 0.6
vt 0.25 0.8
vt 0.25 1
vt 0.08333335 0.2
vt 0.02777781 0
vt 0.1388889 0.4
vt 0.1944444 0.6
vt 0.1944444 0.8
vt 0.1944444 1
vt 0.02777781 0.2
vt -0.02777779 0
vt -0.02777779 0.2
vt 0.08333335 0.4
vt 0.1388889 0.6
vt 0.1388889 0.8
vt 0.1388889 1
vt 0.02777781 0.4
vt -0.02777779 0.4
vt 0.08333335 0.6
vt 0.08333335 0.8
vt 0.08333335 1
vt 0.02777781 0.6
vt -0.02777779 0.6
vt 0.02777781 0.8
vt 0.02777781 1
vt -0.02777779 0.8
vt -0.02777779 1
vn 0.295243 0.5113754 -0.8070483
vn 0.1305151 0.7401866 -0.6596131
vn 0.1025367 0.5815145 -0.8070483
vn 0.3758027 0.6509092 -0.6596132
vn 0.4523384 0.3795571 -0.807048
vn 0.1678957 0.9521815 -0.2552675
vn 0.575763 0.4831226 -0.6596132
vn 0.554875 0.2019582 -0.807048
vn 0.4834355 0.8373343 -0.2552673
vn 0.1678957 0.9521811 0.2552689
vn 0.706278 0.2570645 -0.6596131
vn 0.590486 -5.515057E-07 -0.8070478
vn 0.7406657 0.6214925 -0.2552674
vn 0.4834352 0.8373337 0.2552693
vn 0.1305154 0.7401872 0.6596125
vn 0.7516052 -4.645412E-07 -0.6596133
vn 0.5548754 -0.2019586 -0.8070477
vn 0.9085609 0.3306896 -0.2552674
vn 0.7406653 0.6214921 0.2552694
vn 0.3758031 0.6509097 0.6596124
vn 0.102537 0.5815144 0.8070484
vn 0.2952431 0.5113755 0.8070481
vn 0.5757635 0.483123 0.6596124
vn 0.4523383 0.3795572 0.807048
vn 0.7062777 -0.2570645 -0.6596133
vn 0.4523385 -0.3795572 -0.8070478
vn 0.9668704 -1.94759E-07 -0.2552678
vn 0.9085605 0.3306895 0.2552694
vn 0.7062784 0.2570646 0.6596124
vn 0.554875 0.2019582 0.807048
vn 0.575763 -0.4831227 -0.659613
vn 0.2952427 -0.5113761 -0.8070478
vn 0.9085608 -0.3306895 -0.2552681
vn 0.96687 -3.99768E-07 0.2552696
vn 0.7516056 -5.415509E-07 0.6596127
vn 0.590486 -6.609314E-07 0.8070478
vn 0.3758023 -0.6509097 -0.659613
vn 0.1025365 -0.5815154 -0.8070478
vn 0.7406655 -0.6214924 -0.255268
vn 0.9085604 -0.3306896 0.2552695
vn 0.7062781 -0.2570645 0.6596128
vn 0.5548756 -0.2019584 0.8070476
vn 0.1305145 -0.740187 -0.6596128
vn -0.102537 -0.5815155 -0.8070477
vn 0.4834347 -0.8373345 -0.2552682
vn 0.7406651 -0.6214924 0.2552694
vn 0.5757632 -0.4831228 0.6596128
vn 0.4523385 -0.3795571 0.8070478
vn -0.130515 -0.740187 -0.6596128
vn -0.2952437 -0.5113761 -0.8070475
vn 0.1678948 -0.9521813 -0.2552683
vn 0.4834342 -0.8373346 0.2552689
vn 0.3758022 -0.6509101 0.6596125
vn 0.2952426 -0.5113763 0.8070478
vn -0.3758032 -0.6509094 -0.6596128
vn -0.4523391 -0.3795573 -0.8070474
vn -0.1678955 -0.9521811 -0.2552687
vn 0.1678944 -0.9521815 0.2552686
vn 0.1305146 -0.7401873 0.6596125
vn 0.1025366 -0.5815156 0.8070477
vn -0.5757637 -0.4831226 -0.6596125
vn -0.5548756 -0.2019583 -0.8070477
vn -0.4834355 -0.8373339 -0.2552688
vn -0.1678956 -0.9521812 0.2552684
vn -0.1305152 -0.7401871 0.6596126
vn -0.1025371 -0.5815154 0.8070477
vn -0.7062784 -0.2570644 -0.6596125
vn -0.590486 -1.138028E-07 -0.8070478
vn -0.7406659 -0.6214917 -0.2552687
vn -0.4834357 -0.8373339 0.2552682
vn -0.3758031 -0.6509095 0.6596125
vn -0.2952433 -0.511376 0.8070476
vn -0.7516057 1.11788E-07 -0.6596127
vn -0.5548752 0.2019582 -0.807048
vn -0.9085609 -0.3306889 -0.2552685
vn -0.740666 -0.6214917 0.2552682
vn -0.5757636 -0.4831228 0.6596126
vn -0.4523387 -0.3795572 0.8070477
vn -0.7062782 0.2570644 -0.6596128
vn -0.4523385 0.379557 -0.807048
vn -0.9668702 0 -0.2552684
vn -0.908561 -0.3306889 0.2552682
vn -0.7062785 -0.2570642 0.6596125
vn -0.5548756 -0.201958 0.8070477
vn -0.5757632 0.4831226 -0.659613
vn -0.2952432 0.5113753 -0.8070481
vn -0.9085609 0.3306892 -0.2552682
vn -0.9668701 1.99884E-07 0.2552684
vn -0.7516057 0 0.6596127
vn -0.590486 0 0.8070478
vn -0.3758029 0.6509092 -0.659613
vn -0.1025368 0.5815145 -0.8070483
vn -0.7406654 0.6214926 -0.2552681
vn -0.9085609 0.3306888 0.2552686
vn -0.7062783 0.2570646 0.6596126
vn -0.5548752 0.2019582 0.807048
vn -0.1305152 0.7401868 -0.6596131
vn 0.1025367 0.5815145 -0.8070483
vn 0.1305151 0.7401866 -0.6596131
vn -0.4834355 0.837334 -0.2552681
vn -0.7406654 0.6214922 0.2552689
vn -0.5757633 0.4831227 0.6596128
vn -0.4523383 0.379557 0.8070481
vn -0.1678955 0.9521815 -0.2552678
vn 0.1678957 0.9521815 -0.2552675
vn -0.4834358 0.8373337 0.2552686
vn -0.3758032 0.6509095 0.6596127
vn -0.2952433 0.5113751 0.8070483
vn -0.1678958 0.9521811 0.2552685
vn 0.1678957 0.9521811 0.2552689
vn -0.1305152 0.7401871 0.6596126
vn -0.1025369 0.5815143 0.8070486
vn 0.1305154 0.7401872 0.6596125
vn 0.102537 0.5815144 0.8070484
g FXMesh_Ring_01_0
f 3/3/3 2/2/2 1/1/1
f 2/2/2 4/4/4 1/1/1
f 1/1/1 4/4/4 5/5/5
f 2/2/2 6/6/6 4/4/4
f 4/4/4 7/7/7 5/5/5
f 5/5/5 7/7/7 8/8/8
f 6/6/6 9/9/9 4/4/4
f 4/4/4 9/9/9 7/7/7
f 6/6/6 10/10/10 9/9/9
f 7/7/7 11/11/11 8/8/8
f 8/8/8 11/11/11 12/12/12
f 9/9/9 13/13/13 7/7/7
f 7/7/7 13/13/13 11/11/11
f 10/10/10 14/14/14 9/9/9
f 9/9/9 14/14/14 13/13/13
f 10/10/10 15/15/15 14/14/14
f 11/11/11 16/16/16 12/12/12
f 12/12/12 16/16/16 17/17/17
f 13/13/13 18/18/18 11/11/11
f 11/11/11 18/18/18 16/16/16
f 14/14/14 19/19/19 13/13/13
f 13/13/13 19/19/19 18/18/18
f 15/15/15 20/20/20 14/14/14
f 14/14/14 20/20/20 19/19/19
f 15/15/15 21/21/21 20/20/20
f 21/21/21 22/22/22 20/20/20
f 20/20/20 22/22/22 23/23/23
f 20/20/20 23/23/23 19/19/19
f 22/22/22 24/24/24 23/23/23
f 16/16/16 25/25/25 17/17/17
f 17/17/17 25/25/25 26/26/26
f 18/18/18 27/27/27 16/16/16
f 16/16/16 27/27/27 25/25/25
f 19/19/19 28/28/28 18/18/18
f 19/19/19 23/23/23 28/28/28
f 18/18/18 28/28/28 27/27/27
f 23/23/23 24/24/24 29/29/29
f 23/23/23 29/29/29 28/28/28
f 24/24/24 30/30/30 29/29/29
f 25/25/25 31/31/31 26/26/26
f 26/26/26 31/31/31 32/32/32
f 27/27/27 33/33/33 25/25/25
f 25/25/25 33/33/33 31/31/31
f 28/28/28 34/34/34 27/27/27
f 28/28/28 29/29/29 34/34/34
f 27/27/27 34/34/34 33/33/33
f 29/29/29 30/30/30 35/35/35
f 29/29/29 35/35/35 34/34/34
f 30/30/30 36/36/36 35/35/35
f 31/31/31 37/37/37 32/32/32
f 32/32/32 37/37/37 38/38/38
f 33/33/33 39/39/39 31/31/31
f 31/31/31 39/39/39 37/37/37
f 34/34/34 40/40/40 33/33/33
f 34/34/34 35/35/35 40/40/40
f 33/33/33 40/40/40 39/39/39
f 35/35/35 36/36/36 41/41/41
f 35/35/35 41/41/41 40/40/40
f 36/36/36 42/42/42 41/41/41
f 37/37/37 43/43/43 38/38/38
f 38/38/38 43/43/43 44/44/44
f 39/39/39 45/45/45 37/37/37
f 37/37/37 45/45/45 43/43/43
f 40/40/40 46/46/46 39/39/39
f 40/40/40 41/41/41 46/46/46
f 39/39/39 46/46/46 45/45/45
f 41/41/41 42/42/42 47/47/47
f 41/41/41 47/47/47 46/46/46
f 42/42/42 48/48/48 47/47/47
f 43/43/43 49/49/49 44/44/44
f 44/44/44 49/49/49 50/50/50
f 45/45/45 51/51/51 43/43/43
f 43/43/43 51/51/51 49/49/49
f 46/46/46 52/52/52 45/45/45
f 46/46/46 47/47/47 52/52/52
f 45/45/45 52/52/52 51/51/51
f 47/47/47 48/48/48 53/53/53
f 47/47/47 53/53/53 52/52/52
f 48/48/48 54/54/54 53/53/53
f 49/49/49 55/55/55 50/50/50
f 50/50/50 55/55/55 56/56/56
f 51/51/51 57/57/57 49/49/49
f 49/49/49 57/57/57 55/55/55
f 52/52/52 58/58/58 51/51/51
f 52/52/52 53/53/53 58/58/58
f 51/51/51 58/58/58 57/57/57
f 53/53/53 54/54/54 59/59/59
f 53/53/53 59/59/59 58/58/58
f 54/54/54 60/60/60 59/59/59
f 55/55/55 61/61/61 56/56/56
f 56/56/56 61/61/61 62/62/62
f 57/57/57 63/63/63 55/55/55
f 55/55/55 63/63/63 61/61/61
f 58/58/58 64/64/64 57/57/57
f 58/58/58 59/59/59 64/64/64
f 57/57/57 64/64/64 63/63/63
f 59/59/59 60/60/60 65/65/65
f 59/59/59 65/65/65 64/64/64
f 60/60/60 66/66/66 65/65/65
f 61/61/61 67/67/67 62/62/62
f 62/62/62 67/67/67 68/68/68
f 63/63/63 69/69/69 61/61/61
f 61/61/61 69/69/69 67/67/67
f 64/64/64 70/70/70 63/63/63
f 64/64/64 65/65/65 70/70/70
f 63/63/63 70/70/70 69/69/69
f 65/65/65 66/66/66 71/71/71
f 65/65/65 71/71/71 70/70/70
f 66/66/66 72/72/72 71/71/71
f 67/67/67 73/73/73 68/68/68
f 68/68/68 73/73/73 74/74/74
f 69/69/69 75/75/75 67/67/67
f 67/67/67 75/75/75 73/73/73
f 70/70/70 76/76/76 69/69/69
f 70/70/70 71/71/71 76/76/76
f 69/69/69 76/76/76 75/75/75
f 71/71/71 72/72/72 77/77/77
f 71/71/71 77/77/77 76/76/76
f 72/72/72 78/78/78 77/77/77
f 73/73/73 79/79/79 74/74/74
f 74/74/74 79/79/79 80/80/80
f 75/75/75 81/81/81 73/73/73
f 73/73/73 81/81/81 79/79/79
f 76/76/76 82/82/82 75/75/75
f 76/76/76 77/77/77 82/82/82
f 75/75/75 82/82/82 81/81/81
f 77/77/77 78/78/78 83/83/83
f 77/77/77 83/83/83 82/82/82
f 78/78/78 84/84/84 83/83/83
f 79/79/79 85/85/85 80/80/80
f 80/80/80 85/85/85 86/86/86
f 81/81/81 87/87/87 79/79/79
f 79/79/79 87/87/87 85/85/85
f 82/82/82 88/88/88 81/81/81
f 82/82/82 83/83/83 88/88/88
f 81/81/81 88/88/88 87/87/87
f 83/83/83 84/84/84 89/89/89
f 83/83/83 89/89/89 88/88/88
f 84/84/84 90/90/90 89/89/89
f 85/85/85 91/91/91 86/86/86
f 86/86/86 91/91/91 92/92/92
f 87/87/87 93/93/93 85/85/85
f 85/85/85 93/93/93 91/91/91
f 88/88/88 94/94/94 87/87/87
f 88/88/88 89/89/89 94/94/94
f 87/87/87 94/94/94 93/93/93
f 89/89/89 90/90/90 95/95/95
f 89/89/89 95/95/95 94/94/94
f 90/90/90 96/96/96 95/95/95
f 91/91/91 97/97/97 92/92/92
f 92/92/92 97/97/97 98/98/98
f 97/97/97 99/99/99 98/98/98
f 93/93/93 100/100/100 91/91/91
f 91/91/91 100/100/100 97/97/97
f 94/94/94 101/101/101 93/93/93
f 94/94/94 95/95/95 101/101/101
f 93/93/93 101/101/101 100/100/100
f 95/95/95 96/96/96 102/102/102
f 95/95/95 102/102/102 101/101/101
f 96/96/96 103/103/103 102/102/102
f 97/97/97 104/104/104 99/99/99
f 100/100/100 104/104/104 97/97/97
f 104/104/104 105/105/105 99/99/99
f 101/101/101 106/106/106 100/100/100
f 101/101/101 102/102/102 106/106/106
f 100/100/100 106/106/106 104/104/104
f 102/102/102 103/103/103 107/107/107
f 102/102/102 107/107/107 106/106/106
f 103/103/103 108/108/108 107/107/107
f 104/104/104 109/109/109 105/105/105
f 106/106/106 109/109/109 104/104/104
f 106/106/106 107/107/107 109/109/109
f 109/109/109 110/110/110 105/105/105
f 107/107/107 108/108/108 111/111/111
f 107/107/107 111/111/111 109/109/109
f 109/109/109 111/111/111 110/110/110
f 108/108/108 112/112/112 111/111/111
f 111/111/111 113/113/113 110/110/110
f 111/111/111 112/112/112 113/113/113
f 112/112/112 114/114/114 113/113/113
