g Mesh_BaoShi
v -0.343713 0 0.03113808
v -0.3499065 0 2.40052E-08
v -0.343713 0 -0.03113808
v -0.03113823 0 0.343713
v -0.03113823 0 -0.343713
v -2.40052E-08 0 0.3499065
v -4.285119E-17 0 -0.3499065
v 0.03113808 0 -0.343713
v 0.03113808 0 0.343713
v 0.343713 0 0.03113808
v 0.343713 0 -0.03113808
v 0.3499065 0 -4.285119E-17
vt 0.8729688 0.5333622
vt 0.8796635 0.4995897
vt 0.8729245 0.4658261
vt 0.5342161 0.8725585
vt 0.5337281 0.1270734
vt 0.5004525 0.8792975
vt 0.4999556 0.1203787
vt 0.466192 0.1271177
vt 0.4666801 0.8726028
vt 0.1274837 0.5338501
vt 0.1274393 0.4663141
vt 0.1207446 0.5000865
vn 0 1 0
vn 0 1 0
vn 0 1 0
vn 0 1 0
vn 0 1 0
vn 0 1 0
vn 0 1 0
vn 0 1 0
vn 0 1 0
vn 0 1 0
vn 0 1 0
vn 0 1 0
g Mesh_BaoShi_0
f 3/3/3 2/2/2 1/1/1
f 3/3/3 1/1/1 4/4/4
f 5/5/5 3/3/3 4/4/4
f 5/5/5 4/4/4 6/6/6
f 7/7/7 5/5/5 6/6/6
f 8/8/8 7/7/7 6/6/6
f 9/9/9 8/8/8 6/6/6
f 9/9/9 10/10/10 8/8/8
f 10/10/10 11/11/11 8/8/8
f 10/10/10 12/12/12 11/11/11
