g Mesh_Circle
v 0.4330127 1.530809E-17 -0.25
v -2.185569E-08 3.061617E-17 -0.5
v 0.25 2.651438E-17 -0.4330128
v 0.4330125 -1.53081E-17 0.2500003
v 0.5 0 0
v -0.4330128 -1.530808E-17 0.2499999
v -0.4330127 1.530809E-17 -0.25
v -0.25 2.651438E-17 -0.4330127
v -0.5 4.622913E-24 -7.54979E-08
v -2.324561E-07 -3.061617E-17 0.5
v -0.2500001 -2.651437E-17 0.4330126
v 0.2499997 -2.651439E-17 0.4330128
vt 0.25 0.9330127
vt 0 0.5
vt 0.06698728 0.7499999
vt 0.7500002 0.9330125
vt 0.5 1
vt 0.7499999 0.06698725
vt 0.25 0.06698731
vt 0.06698731 0.2499999
vt 0.4999999 0
vt 1 0.4999998
vt 0.9330126 0.2499999
vt 0.9330128 0.7499998
vn 0 1 0
vn 0 1 0
vn 0 1 0
vn 0 1 0
vn 0 1 0
vn 0 1 0
vn 0 1 0
vn 0 1 0
vn 0 1 0
vn 0 1 0
vn 0 1 0
vn 0 1 0
g Mesh_Circle_0
f 3/3/3 2/2/2 1/1/1
f 2/2/2 4/4/4 1/1/1
f 1/1/1 4/4/4 5/5/5
f 6/6/6 4/4/4 2/2/2
f 7/7/7 6/6/6 2/2/2
f 8/8/8 7/7/7 2/2/2
f 9/9/9 6/6/6 7/7/7
f 10/10/10 4/4/4 6/6/6
f 11/11/11 10/10/10 6/6/6
f 12/12/12 4/4/4 10/10/10
