g Mesh_CiTie
v -0.185779 0 0.2289182
v -0.3238528 0 0.1822585
v -0.3627807 0 0.1407027
v -0.1397816 0 0.1935177
v -0.09356 0 0.07618445
v -0.3628763 0 0.0680685
v -0.04370666 0 -0.03418328
v -0.3094385 0 -0.09331989
v -0.2527673 0 -0.2150874
v -0.01220621 0 -0.08018384
v -0.1937988 0 -0.2966695
v -0.1306445 0 -0.3441229
v -0.05853567 0 -0.3664055
v 0.03355996 0 -0.366723
v 0.02512019 0 -0.09123695
v 0.1241647 0 -0.3465985
v 0.06229127 0 -0.08867728
v 0.2120224 0 -0.3002908
v 0.08781584 0 -0.07190224
v 0.283877 0 -0.2361759
v 0.09833249 0 -0.04409501
v 0.3289948 0 -0.1627641
v 0.0971662 0 -0.0001393045
v 0.3548861 0 -0.06739414
v 0.3483222 0 0.04040392
v 0.08367743 0 0.05219366
v 0.3079316 0 0.1505643
v 0.04815834 0 0.1260155
v 0.0005813953 0 0.2120131
v 0.2202795 0 0.3184246
v -0.0006475119 0 0.2831199
v 0.1335889 0 0.3638691
vt 0.7275926 0.7624072
vt 0.8920403 0.7083169
vt 0.9380174 0.6569622
vt 0.6788946 0.7239432
vt 0.6292028 0.5858578
vt 0.9346621 0.5820407
vt 0.5718167 0.4510554
vt 0.8709646 0.3903484
vt 0.8029272 0.2483511
vt 0.5263692 0.3909982
vt 0.7347388 0.1549083
vt 0.6592648 0.0980463
vt 0.574159 0.0663385
vt 0.4627411 0.06349821
vt 0.4749193 0.3687755
vt 0.3558246 0.09325719
vt 0.4189467 0.3782723
vt 0.2520535 0.1512232
vt 0.3872046 0.4050454
vt 0.1709677 0.2282854
vt 0.3708403 0.4462858
vt 0.1148335 0.3175065
vt 0.3695132 0.4994075
vt 0.08982897 0.4239549
vt 0.09649802 0.543521
vt 0.3867334 0.5633918
vt 0.1415384 0.6745331
vt 0.4287637 0.6565131
vt 0.4890038 0.7568226
vt 0.2514394 0.8785421
vt 0.4855329 0.8365442
vt 0.3380411 0.9220457
vn 0 1 0
vn 0 1 0
vn 0 1 0
vn 0 1 0
vn 0 1 0
vn 0 1 0
vn 0 1 0
vn 0 1 0
vn 0 1 0
vn 0 1 0
vn 0 1 0
vn 0 1 0
vn 0 1 0
vn 0 1 0
vn 0 1 0
vn 0 1 0
vn 0 1 0
vn 0 1 0
vn 0 1 0
vn 0 1 0
vn 0 1 0
vn 0 1 0
vn 0 1 0
vn 0 1 0
vn 0 1 0
vn 0 1 0
vn 0 1 0
vn 0 1 0
vn 0 1 0
vn 0 1 0
vn 0 1 0
vn 0 1 0
g Mesh_CiTie_0
f 3/3/3 2/2/2 1/1/1
f 4/4/4 3/3/3 1/1/1
f 4/4/4 5/5/5 3/3/3
f 5/5/5 6/6/6 3/3/3
f 5/5/5 7/7/7 6/6/6
f 7/7/7 8/8/8 6/6/6
f 8/8/8 7/7/7 9/9/9
f 7/7/7 10/10/10 9/9/9
f 10/10/10 11/11/11 9/9/9
f 10/10/10 12/12/12 11/11/11
f 10/10/10 13/13/13 12/12/12
f 13/13/13 10/10/10 14/14/14
f 10/10/10 15/15/15 14/14/14
f 15/15/15 16/16/16 14/14/14
f 15/15/15 17/17/17 16/16/16
f 17/17/17 18/18/18 16/16/16
f 17/17/17 19/19/19 18/18/18
f 19/19/19 20/20/20 18/18/18
f 19/19/19 21/21/21 20/20/20
f 21/21/21 22/22/22 20/20/20
f 21/21/21 23/23/23 22/22/22
f 23/23/23 24/24/24 22/22/22
f 23/23/23 25/25/25 24/24/24
f 23/23/23 26/26/26 25/25/25
f 26/26/26 27/27/27 25/25/25
f 26/26/26 28/28/28 27/27/27
f 28/28/28 29/29/29 27/27/27
f 29/29/29 30/30/30 27/27/27
f 29/29/29 31/31/31 30/30/30
f 31/31/31 32/32/32 30/30/30
