g Mesh_BaoXiang_A
v 0.07599349 0 0.276088
v 0.2652645 0 0.3066773
v 0.09702359 0 0.3066773
v 0.3399419 0 0.1900558
v 0.3399419 0 0.01416766
v -0.3399419 0 0.01416766
v -0.07599349 0 0.276088
v -0.3399419 0 0.1900558
v -0.2652645 0 0.3066773
v -0.09702359 0 0.3066773
v -0.314016 0 -0.1550291
v -0.3532085 0 -0.003038792
v -0.3532085 0 -0.1550291
v 0.314016 0 -0.1550291
v 0.3532085 0 -0.003038792
v 0.3532085 0 -0.1550291
v -0.1314365 0 -0.3127548
v -0.314016 0 -0.3299614
v -0.1400478 0 -0.3299614
v 0.1314365 0 -0.3127548
v 0.314016 0 -0.3299614
v 0.1400478 0 -0.3299614
vt 0.4082237 0.834063
vt 0.1860705 0.868203
vt 0.3808218 0.8683309
vt 0.0948365 0.7417893
vt 0.09593114 0.5319546
vt 0.8982853 0.5324841
vt 0.5998459 0.834063
vt 0.8990877 0.7423203
vt 0.8115566 0.8686194
vt 0.627197 0.8684916
vt 0.8733773 0.3270098
vt 0.923499 0.508841
vt 0.9236254 0.3270427
vt 0.1211202 0.3265131
vt 0.07074582 0.5082785
vt 0.07087215 0.3264798
vt 0.6714048 0.1254347
vt 0.8734258 0.1030906
vt 0.6823525 0.1030906
vt 0.3376438 0.1252163
vt 0.1213626 0.1030906
vt 0.3267247 0.1030906
vn 0 1 0
vn 0 1 0
vn 0 1 0
vn 0 1 0
vn 0 1 0
vn 0 1 0
vn 0 1 0
vn 0 1 0
vn 0 1 0
vn 0 1 0
vn 0 1 0
vn 0 1 0
vn 0 1 0
vn 0 1 0
vn 0 1 0
vn 0 1 0
vn 0 1 0
vn 0 1 0
vn 0 1 0
vn 0 1 0
vn 0 1 0
vn 0 1 0
g Mesh_BaoXiang_A_0
f 3/3/3 2/2/2 1/1/1
f 2/2/2 4/4/4 1/1/1
f 4/4/4 5/5/5 1/1/1
f 1/1/1 5/5/5 6/6/6
f 7/7/7 1/1/1 6/6/6
f 8/8/8 7/7/7 6/6/6
f 8/8/8 9/9/9 7/7/7
f 9/9/9 10/10/10 7/7/7
f 6/6/6 5/5/5 11/11/11
f 12/12/12 6/6/6 11/11/11
f 13/13/13 12/12/12 11/11/11
f 5/5/5 14/14/14 11/11/11
f 5/5/5 15/15/15 14/14/14
f 15/15/15 16/16/16 14/14/14
f 11/11/11 14/14/14 17/17/17
f 18/18/18 11/11/11 17/17/17
f 19/19/19 18/18/18 17/17/17
f 14/14/14 20/20/20 17/17/17
f 14/14/14 21/21/21 20/20/20
f 21/21/21 22/22/22 20/20/20
