g Mesh_JinBi_A
v 0.2667852 -2.967591E-15 0.1758532
v 0.1855614 -4.319237E-15 0.2559489
v 0.1085306 -5.140535E-15 0.3046173
v 0.02424192 -5.68992E-15 0.3371727
v 0.3220625 -1.482684E-15 0.08786073
v 0.3536496 2.49707E-16 -0.01479711
v -0.04908511 -5.937404E-15 0.351838
v 0.358274 1.677502E-15 -0.09940523
v -0.1210477 -5.879628E-15 0.3484143
v 0.3382621 2.746493E-15 -0.1627514
v -0.1829258 -5.501393E-15 0.3260009
v 0.2957041 3.765438E-15 -0.2231319
v -0.2397975 -4.852159E-15 0.2875287
v -0.2942027 -3.921068E-15 0.2323542
v 0.2378888 4.696935E-15 -0.2783304
v 0.1503932 5.623565E-15 -0.3332406
v -0.341552 -2.777123E-15 0.1645665
v 0.07480856 6.037764E-15 -0.3577852
v -0.3558788 -1.665863E-15 0.09871554
v 0.01254277 5.999343E-15 -0.3555084
v -0.3562634 -7.6369E-16 0.04525466
v -0.06236191 5.622696E-15 -0.3331891
v -0.3425203 6.578402E-16 -0.03898222
v -0.145644 4.952671E-15 -0.2934848
v -0.2988499 2.363905E-15 -0.14008
v -0.2295562 3.841411E-15 -0.2276339
vt 0.1748111 0.7151163
vt 0.2743354 0.8139378
vt 0.3687218 0.8739848
vt 0.4720016 0.9141514
vt 0.1070794 0.6065518
vt 0.06837556 0.479893
vt 0.5618498 0.9322456
vt 0.06270906 0.375504
vt 0.6500262 0.9280213
vt 0.08722973 0.2973479
vt 0.7258461 0.9003677
vt 0.1393765 0.2228507
vt 0.7955315 0.852901
vt 0.8621947 0.7848268
vt 0.2102182 0.154747
vt 0.3174274 0.08699925
vt 0.9202122 0.7011909
vt 0.4100419 0.05671621
vt 0.9377668 0.6199443
vt 0.4863367 0.05952529
vt 0.9382384 0.5539846
vt 0.578118 0.08706279
vt 0.9213989 0.4500536
vt 0.6801643 0.1360497
vt 0.8678889 0.3253196
vt 0.7829828 0.2172962
vn 0 1 0
vn 0 1 0
vn 0 1 0
vn 0 1 0
vn 0 1 0
vn 0 1 0
vn 0 1 0
vn 0 1 0
vn 0 1 0
vn 0 1 0
vn 0 1 0
vn 0 1 0
vn 0 1 0
vn 0 1 0
vn 0 1 0
vn 0 1 0
vn 0 1 0
vn 0 1 0
vn 0 1 0
vn 0 1 0
vn 0 1 0
vn 0 1 0
vn 0 1 0
vn 0 1 0
vn 0 1 0
vn 0 1 0
g Mesh_JinBi_A_0
f 3/3/3 2/2/2 1/1/1
f 4/4/4 3/3/3 1/1/1
f 5/5/5 4/4/4 1/1/1
f 5/5/5 6/6/6 4/4/4
f 6/6/6 7/7/7 4/4/4
f 6/6/6 8/8/8 7/7/7
f 8/8/8 9/9/9 7/7/7
f 8/8/8 10/10/10 9/9/9
f 10/10/10 11/11/11 9/9/9
f 10/10/10 12/12/12 11/11/11
f 12/12/12 13/13/13 11/11/11
f 14/14/14 13/13/13 12/12/12
f 15/15/15 14/14/14 12/12/12
f 15/15/15 16/16/16 14/14/14
f 16/16/16 17/17/17 14/14/14
f 16/16/16 18/18/18 17/17/17
f 18/18/18 19/19/19 17/17/17
f 18/18/18 20/20/20 19/19/19
f 20/20/20 21/21/21 19/19/19
f 20/20/20 22/22/22 21/21/21
f 22/22/22 23/23/23 21/21/21
f 22/22/22 24/24/24 23/23/23
f 24/24/24 25/25/25 23/23/23
f 24/24/24 26/26/26 25/25/25
