g Mesh_WenHao
v -0.3504446 0 0.2679418
v -0.3679159 0 0.2457464
v -0.3679159 0 -0.2439375
v -0.2434674 0 -0.3375803
v 0.2024693 0 0.2679418
v 0.2682495 0 -0.3375803
v 0.3110622 0 -0.3210602
v 0.3459024 0 -0.29069
v 0.3652205 0 -0.2453247
v 0.3652205 0 0.222164
v 0.2030508 0 0.3067835
v 0.3538789 0 0.2659731
v 0.3217691 0 0.3012857
v 0.2727374 0 0.3280711
v 0.2311723 0 0.3312739
vt 0.9403637 0.813454
vt 0.9604177 0.7916043
vt 0.9604177 0.2257167
vt 0.8252308 0.1257089
vt 0.2798412 0.813454
vt 0.2302069 0.1257089
vt 0.179398 0.1398471
vt 0.1377404 0.1740383
vt 0.1220112 0.2293167
vt 0.1220112 0.7646019
vt 0.2791738 0.8614935
vt 0.1332122 0.8141177
vt 0.1681285 0.853258
vt 0.2140606 0.8813407
vt 0.2578898 0.8869483
vn 0 1 0
vn 0 1 0
vn 0 1 0
vn 0 1 0
vn 0 1 0
vn 0 1 0
vn 0 1 0
vn 0 1 0
vn 0 1 0
vn 0 1 0
vn 0 1 0
vn 0 1 0
vn 0 1 0
vn 0 1 0
vn 0 1 0
g Mesh_WenHao_0
f 3/3/3 2/2/2 1/1/1
f 4/4/4 3/3/3 1/1/1
f 5/5/5 4/4/4 1/1/1
f 5/5/5 6/6/6 4/4/4
f 5/5/5 7/7/7 6/6/6
f 5/5/5 8/8/8 7/7/7
f 5/5/5 9/9/9 8/8/8
f 5/5/5 10/10/10 9/9/9
f 5/5/5 11/11/11 10/10/10
f 11/11/11 12/12/12 10/10/10
f 11/11/11 13/13/13 12/12/12
f 11/11/11 14/14/14 13/13/13
f 11/11/11 15/15/15 14/14/14
