g Mesh_JinBi_B
v -0.4191244 0 -0.1700893
v -0.3918808 0 -0.2165042
v -0.3252854 0 -0.2568651
v -0.4191244 0 -0.04698869
v -0.2526358 0 -0.2730094
v -0.3918808 0 -0.01167296
v -0.1517338 0 -0.2770455
v -0.3294588 0 0.01783876
v -0.0750481 0 -0.2720004
v -0.2616073 0 0.03588923
v -0.1854918 0 0.04090784
v -0.002398549 0 -0.252829
v 0.2912264 0 0.04685026
v -0.1789773 0 0.1033554
v 0.3447047 0 0.01456158
v 0.2871902 0 0.1235358
v 0.05107947 0 -0.2871357
v -0.1587968 0 0.1638967
v 0.3941466 0 -0.0328624
v 0.2609558 0 0.1951763
v 0.127765 0 -0.3063071
v -0.09926467 0 0.2365462
v 0.4143271 0 -0.09643073
v 0.2135317 0 0.2476454
v 0.2094956 0 -0.3174063
v -0.02257903 0 0.2869973
v 0.1529906 0 0.2869973
v 0.07025085 0 0.3011235
v 0.4032279 0 -0.1610081
v 0.2962715 0 -0.302271
v 0.3820383 0 -0.2407207
v 0.3558039 0 -0.2709914
vt 0.9832965 0.3032745
vt 0.9466305 0.2507042
vt 0.8702937 0.2062127
vt 0.9825725 0.4453925
vt 0.786322 0.1880849
vt 0.9441708 0.4816172
vt 0.6706392 0.1856295
vt 0.8738385 0.5136972
vt 0.5829391 0.1919888
vt 0.7916293 0.5309919
vt 0.6965734 0.5341623
vt 0.5023443 0.2154083
vt 0.1765999 0.5499111
vt 0.6949756 0.618907
vt 0.109509 0.5080694
vt 0.1776572 0.6417484
vt 0.4325501 0.1785294
vt 0.6725817 0.6859792
vt 0.05445481 0.4582769
vt 0.2053304 0.7242592
vt 0.3470287 0.1538057
vt 0.6128421 0.7701387
vt 0.02338633 0.4043266
vt 0.2557839 0.7844926
vt 0.2518275 0.1407823
vt 0.5223292 0.825789
vt 0.325941 0.8256146
vt 0.4192254 0.8442708
vt 0.03007876 0.3203176
vt 0.154116 0.1533815
vt 0.05476343 0.2281578
vt 0.08483418 0.1930333
vn 0 1 0
vn 0 1 0
vn 0 1 0
vn 0 1 0
vn 0 1 0
vn 0 1 0
vn 0 1 0
vn 0 1 0
vn 0 1 0
vn 0 1 0
vn 0 1 0
vn 0 1 0
vn 0 1 0
vn 0 1 0
vn 0 1 0
vn 0 1 0
vn 0 1 0
vn 0 1 0
vn 0 1 0
vn 0 1 0
vn 0 1 0
vn 0 1 0
vn 0 1 0
vn 0 1 0
vn 0 1 0
vn 0 1 0
vn 0 1 0
vn 0 1 0
vn 0 1 0
vn 0 1 0
vn 0 1 0
vn 0 1 0
g Mesh_JinBi_B_0
f 3/3/3 2/2/2 1/1/1
f 3/3/3 1/1/1 4/4/4
f 5/5/5 3/3/3 4/4/4
f 5/5/5 4/4/4 6/6/6
f 7/7/7 5/5/5 6/6/6
f 7/7/7 6/6/6 8/8/8
f 9/9/9 7/7/7 8/8/8
f 9/9/9 8/8/8 10/10/10
f 9/9/9 10/10/10 11/11/11
f 12/12/12 9/9/9 11/11/11
f 13/13/13 12/12/12 11/11/11
f 14/14/14 13/13/13 11/11/11
f 13/13/13 15/15/15 12/12/12
f 14/14/14 16/16/16 13/13/13
f 15/15/15 17/17/17 12/12/12
f 14/14/14 18/18/18 16/16/16
f 15/15/15 19/19/19 17/17/17
f 18/18/18 20/20/20 16/16/16
f 19/19/19 21/21/21 17/17/17
f 18/18/18 22/22/22 20/20/20
f 19/19/19 23/23/23 21/21/21
f 22/22/22 24/24/24 20/20/20
f 23/23/23 25/25/25 21/21/21
f 22/22/22 26/26/26 24/24/24
f 26/26/26 27/27/27 24/24/24
f 26/26/26 28/28/28 27/27/27
f 23/23/23 29/29/29 25/25/25
f 29/29/29 30/30/30 25/25/25
f 29/29/29 31/31/31 30/30/30
f 31/31/31 32/32/32 30/30/30
