g Mesh_DaiZi
v -0.2261954 0 -0.04753754
v -0.4895324 0 0.5664156
v -0.7975528 0 0.07263512
v -0.4695084 0 -0.717571
v 0.6682416 0 0.2504905
v -0.307987 0 -0.5281209
v -0.0868048 0 -0.3418056
v -0.07162991 0 -0.5161275
v 0.1680671 0 -0.1534462
v 0.7789072 0 -0.2593617
v 0.04772384 0 -0.5715967
v 0.1012116 0 -0.8419387
vt 0.6491209 0.5777891
vt 0.7761655 0.9160098
vt 0.9553168 0.6359099
vt 0.7764279 0.172008
vt 0.1018852 0.7297693
vt 0.6843051 0.2813984
vt 0.5502571 0.3680117
vt 0.5355592 0.292065
vt 0.3759237 0.4979731
vt 0.0425083 0.4350861
vt 0.4515958 0.2521515
vt 0.4174442 0.09461528
vn 0 1 0
vn 0 1 0
vn 0 1 0
vn 0 1 0
vn 0 1 0
vn 0 1 0
vn 0 1 0
vn 0 1 0
vn 0 1 0
vn 0 1 0
vn 0 1 0
vn 0 1 0
g Mesh_DaiZi_0
f 3/3/3 2/2/2 1/1/1
f 4/4/4 3/3/3 1/1/1
f 1/1/1 2/2/2 5/5/5
f 6/6/6 4/4/4 1/1/1
f 6/6/6 1/1/1 7/7/7
f 6/6/6 7/7/7 8/8/8
f 9/9/9 1/1/1 5/5/5
f 8/8/8 7/7/7 9/9/9
f 10/10/10 9/9/9 5/5/5
f 11/11/11 8/8/8 9/9/9
f 10/10/10 12/12/12 9/9/9
f 12/12/12 11/11/11 9/9/9
