g Mesh_ZhaDan
v -0.04626441 0 0.3294412
v -0.06391381 0 0.3574118
v -0.09945355 0 0.3699346
v -0.1339946 0 0.3603365
v -0.04987705 0 0.3009889
v -0.1560825 0 0.3370106
v -0.06707944 0 0.2706786
v -0.1614499 0 0.3117919
v -0.1971958 0 0.2834425
v -0.2176319 0 0.2498985
v -0.02421139 0 0.2599787
v 0.01094946 0 0.2347949
v -0.2207626 0 0.2164575
v 0.07718998 0 0.226423
v -0.2616349 0 0.1660552
v 0.1468891 0 0.198586
v -0.2773235 0 0.1083594
v 0.2101772 0 0.1483941
v -0.2802132 0 0.04705093
v 0.2547956 0 0.09166935
v -0.2940223 0 -0.02819123
v 0.2836225 0 0.01367089
v -0.2915861 0 -0.1092778
v 0.2910538 0 -0.07733238
v -0.2656712 0 -0.1898741
v 0.2705567 0 -0.1693559
v -0.2176235 0 -0.2628779
v 0.2203953 0 -0.251131
v -0.1566441 0 -0.3111815
v 0.1544727 0 -0.3059065
v -0.08369842 0 -0.3449515
v 0.07641337 0 -0.3430327
v 0.001110284 0 -0.3551695
vt 0.5776154 0.93569
vt 0.5901706 0.9677328
vt 0.6312962 0.9808539
vt 0.6720874 0.9704072
vt 0.584131 0.8974664
vt 0.697678 0.9355572
vt 0.6107447 0.8597633
vt 0.7034533 0.9045529
vt 0.7515426 0.868803
vt 0.776364 0.82513
vt 0.5473428 0.8379736
vt 0.495841 0.7994534
vt 0.7844679 0.782731
vt 0.4038934 0.790147
vt 0.8359194 0.7180305
vt 0.3151256 0.7521692
vt 0.856294 0.644262
vt 0.2319081 0.6883776
vt 0.8594337 0.5620741
vt 0.177762 0.6137686
vt 0.8776118 0.4677065
vt 0.1387881 0.5135063
vt 0.8734007 0.3626977
vt 0.1286318 0.3961991
vt 0.8424708 0.2596962
vt 0.1577414 0.2773402
vt 0.7784064 0.1662257
vt 0.2263346 0.1729077
vt 0.7041464 0.1020243
vt 0.3071088 0.09833292
vt 0.6128866 0.05944863
vt 0.4119585 0.05697473
vt 0.5053878 0.04426321
vn 0 1 0
vn 0 1 0
vn 0 1 0
vn 0 1 0
vn 0 1 0
vn 0 1 0
vn 0 1 0
vn 0 1 0
vn 0 1 0
vn 0 1 0
vn 0 1 0
vn 0 1 0
vn 0 1 0
vn 0 1 0
vn 0 1 0
vn 0 1 0
vn 0 1 0
vn 0 1 0
vn 0 1 0
vn 0 1 0
vn 0 1 0
vn 0 1 0
vn 0 1 0
vn 0 1 0
vn 0 1 0
vn 0 1 0
vn 0 1 0
vn 0 1 0
vn 0 1 0
vn 0 1 0
vn 0 1 0
vn 0 1 0
vn 0 1 0
g Mesh_ZhaDan_0
f 3/3/3 2/2/2 1/1/1
f 4/4/4 3/3/3 1/1/1
f 4/4/4 1/1/1 5/5/5
f 6/6/6 4/4/4 5/5/5
f 6/6/6 5/5/5 7/7/7
f 8/8/8 6/6/6 7/7/7
f 9/9/9 8/8/8 7/7/7
f 10/10/10 9/9/9 7/7/7
f 11/11/11 10/10/10 7/7/7
f 11/11/11 12/12/12 10/10/10
f 12/12/12 13/13/13 10/10/10
f 12/12/12 14/14/14 13/13/13
f 14/14/14 15/15/15 13/13/13
f 14/14/14 16/16/16 15/15/15
f 16/16/16 17/17/17 15/15/15
f 16/16/16 18/18/18 17/17/17
f 18/18/18 19/19/19 17/17/17
f 18/18/18 20/20/20 19/19/19
f 20/20/20 21/21/21 19/19/19
f 20/20/20 22/22/22 21/21/21
f 22/22/22 23/23/23 21/21/21
f 22/22/22 24/24/24 23/23/23
f 24/24/24 25/25/25 23/23/23
f 24/24/24 26/26/26 25/25/25
f 26/26/26 27/27/27 25/25/25
f 26/26/26 28/28/28 27/27/27
f 28/28/28 29/29/29 27/27/27
f 28/28/28 30/30/30 29/29/29
f 30/30/30 31/31/31 29/29/29
f 30/30/30 32/32/32 31/31/31
f 32/32/32 33/33/33 31/31/31
