g Plane002
v 0.7573194 0.08248606 -0.3438
v 0.6999815 -0.250992 0.3055767
v 0.7573194 0.001340369 0.353554
v 0.7148718 -0.1141177 -0.3607275
v 0.574259 -0.4795983 0.226585
v 0.6251004 -0.2784066 -0.3985749
v 0.3888387 -0.6515147 0.1269542
v 0.4918614 -0.406068 -0.451786
v 0.1607905 -0.7548053 0.009316057
v 0.3335995 -0.4836669 -0.5153449
v -0.08685621 -0.7798128 -0.1248721
v 0.1686787 -0.5080867 -0.5867214
v -0.3275614 -0.7244469 -0.2742757
v 0.01340912 -0.4825782 -0.6646685
v -0.5348335 -0.596068 -0.4373462
v -0.1190694 -0.4145792 -0.7488585
v -0.6862473 -0.4112616 -0.6121988
v -0.2190879 -0.3140369 -0.8397009
v -0.76704 -0.1936771 -0.796606
v -0.2802656 -0.1922839 -0.9381913
v -0.772412 0.02963331 -0.9880784
v -0.2992641 -0.06143125 -1.045747
v -0.7079523 0.2325592 -1.184005
v -0.2757933 0.06595857 -1.164008
v -0.5880814 0.3939822 -1.381853
v -0.212942 0.1773154 -1.294602
v -0.4329325 0.5005957 -1.579384
v -0.1176016 0.2609496 -1.438912
v -0.2645005 0.5479548 -1.774873
v -0.0005507236 0.307463 -1.597841
v -0.1030211 0.5397248 -1.967279
v 0.1242255 0.3114364 -1.771629
v 0.03562867 0.485602 -2.156356
v 0.241167 0.2728537 -1.959742
v 0.1411513 0.3986721 -2.342664
v 0.3355233 0.1976749 -2.160856
v 0.2087732 0.2929617 -2.527471
v 0.3959342 0.09715887 -2.372953
v 0.2383801 0.1816674 -2.712563
v 0.4164664 -0.0140477 -2.593509
v 0.233394 0.0761546 -2.899978
v 0.3975005 -0.120615 -2.819772
v 0.199788 -0.01449038 -3.091691
v 0.3452137 -0.2092857 -3.049058
v 0.1453452 -0.08369938 -3.28933
v 0.2698713 -0.2709649 -3.279059
v 0.07902037 -0.127669 -3.493932
v 0.1834961 -0.3016651 -3.508072
v 0.01018525 -0.1456204 -3.705815
v 0.09759793 -0.3022664 -3.735138
v -0.05235207 -0.1398798 -3.924558
v 0.02149954 -0.2774051 -3.960063
v -0.101449 -0.1155489 -4.149111
v -0.03851892 -0.2339856 -4.183306
v -0.1325765 -0.07966539 -4.378005
v -0.07934419 -0.1797663 -4.405786
v -0.1443115 -0.03998281 -4.609609
v -0.10069 -0.1222678 -4.628606
v -0.1382169 -0.003664861 -4.842412
v -0.1045639 -0.06803139 -4.852792
v -0.1192119 0.02479921 -5.074267
v -0.09559626 -0.02084279 -5.079854
v -0.6319323 -0.562037 -0.5167307
v -0.7367035 -0.1507183 0.5262399
v -0.6879914 -0.4122475 0.5821979
v -0.6824253 -0.2957492 -0.5377774
v -0.7480136 0.2023906 0.4236244
v -0.6874117 -0.1264126 -0.5611127
v -0.648448 0.4978758 0.2827576
v -0.6275054 0.05354179 -0.6180686
v -0.4313368 0.7543753 0.09270689
v -0.5401882 0.169499 -0.6726603
v -0.1690701 0.8938308 -0.1074819
v -0.4039527 0.2615176 -0.7536803
v 0.1186965 0.9334531 -0.3289819
v -0.2573466 0.2994052 -0.8432507
v 0.3944792 0.8736327 -0.5676768
v -0.117115 0.2869126 -0.9415123
v 0.6242651 0.7287104 -0.8190095
v 0.003551625 0.2313051 -1.049962
v 0.7974371 0.4968318 -1.110564
v 0.07650584 0.1677671 -1.13909
v 0.8602604 0.2666314 -1.369899
v 0.1385924 0.05449597 -1.278655
v 0.8443154 0.04605399 -1.626063
v 0.1569014 -0.07178811 -1.437679
v 0.7640331 -0.1407221 -1.875829
v 0.1295254 -0.1955476 -1.617801
v 0.6396979 -0.2786634 -2.117239
v 0.06017741 -0.3007318 -1.81956
v 0.492877 -0.362192 -2.349757
v -0.04143222 -0.373238 -2.04221
v 0.3428044 -0.3935555 -2.574247
v -0.1606058 -0.4035765 -2.283713
v 0.2043538 -0.3802097 -2.792797
v -0.2800428 -0.388849 -2.540914
v 0.08757932 -0.3322151 -3.008374
v -0.3830265 -0.3333144 -2.809866
v -0.001711898 -0.2603367 -3.22438
v -0.4565064 -0.247292 -3.086269
v -0.06104947 -0.1750285 -3.44416
v -0.4931879 -0.1447378 -3.365949
v -0.09059609 -0.08604079 -3.67055
v -0.4921298 -0.04025282 -3.645308
v -0.0928129 -0.002210947 -3.905514
v -0.4578628 0.05359362 -3.921682
v -0.07232378 0.06891605 -4.149939
v -0.3985306 0.1279784 -4.193538
v -0.03565012 0.1217049 -4.403599
v -0.3237562 0.1783549 -4.460504
v 0.009426899 0.1530832 -4.665299
v -0.2428538 0.2040017 -4.723228
v 0.05488181 0.1629104 -4.933149
v -0.1637093 0.2070488 -4.983097
v 0.09360229 0.1538259 -5.204935
v -0.09231959 0.1914366 -5.241862
v 0.1203518 0.1305598 -5.478497
v -0.03275593 0.1620883 -5.501265
v 0.1318814 0.09913097 -5.750264
v 0.0125986 0.124064 -5.764508
v 0.1276512 0.06522582 -6.023284
v 0.04236007 0.08370179 -6.028265
v 0.1181348 0.03206406 -6.292935
v 0.06726692 0.04308316 -6.295906
vt -1.192093E-07 2.682209E-07
vt 0.03333324 1
vt -1.192093E-07 1
vt 0.03333324 2.667639E-07
vt 0.0666666 1
vt 0.06666654 2.653068E-07
vt 0.0999999 1
vt 0.0999999 2.638498E-07
vt 0.1333333 1
vt 0.1333332 2.623927E-07
vt 0.1666666 1
vt 0.1666666 2.609357E-07
vt 0.1999999 1
vt 0.1999999 2.594786E-07
vt 0.2333332 1
vt 0.2333332 2.580216E-07
vt 0.2666666 1
vt 0.2666665 2.565645E-07
vt 0.3 1
vt 0.2999999 2.551075E-07
vt 0.3333333 1
vt 0.3333333 2.536504E-07
vt 0.3666666 1
vt 0.3666666 2.521934E-07
vt 0.3999999 1
vt 0.3999999 2.507363E-07
vt 0.4333333 1
vt 0.4333332 2.492793E-07
vt 0.4666666 1
vt 0.4666666 2.478222E-07
vt 0.4999999 1
vt 0.4999999 2.463652E-07
vt 0.5333333 1
vt 0.5333332 2.449082E-07
vt 0.5666667 1
vt 0.5666666 2.434511E-07
vt 0.6 1
vt 0.6 2.419941E-07
vt 0.6333334 1
vt 0.6333333 2.40537E-07
vt 0.6666667 1
vt 0.6666667 2.3908E-07
vt 0.7000001 1
vt 0.7 2.376229E-07
vt 0.7333335 1
vt 0.7333334 2.361659E-07
vt 0.7666668 1
vt 0.7666668 2.347088E-07
vt 0.8000002 1
vt 0.8000001 2.332518E-07
vt 0.8333336 1
vt 0.8333335 2.317947E-07
vt 0.8666669 1
vt 0.8666669 2.303377E-07
vt 0.9000003 1
vt 0.9000002 2.288806E-07
vt 0.9333336 1
vt 0.9333336 2.274236E-07
vt 0.966667 1
vt 0.9666669 2.259665E-07
vt 1 1
vt 1 2.245095E-07
vt -1.192093E-07 2.682209E-07
vt 0.03333324 1
vt -1.192093E-07 1
vt 0.03333324 2.667639E-07
vt 0.0666666 1
vt 0.06666654 2.653068E-07
vt 0.0999999 1
vt 0.0999999 2.638498E-07
vt 0.1333333 1
vt 0.1333332 2.623927E-07
vt 0.1666666 1
vt 0.1666666 2.609357E-07
vt 0.1999999 1
vt 0.1999999 2.594786E-07
vt 0.2333332 1
vt 0.2333332 2.580216E-07
vt 0.2666666 1
vt 0.2666665 2.565645E-07
vt 0.3 1
vt 0.2999999 2.551075E-07
vt 0.3333333 1
vt 0.3333333 2.536504E-07
vt 0.3666666 1
vt 0.3666666 2.521934E-07
vt 0.3999999 1
vt 0.3999999 2.507363E-07
vt 0.4333333 1
vt 0.4333332 2.492793E-07
vt 0.4666666 1
vt 0.4666666 2.478222E-07
vt 0.4999999 1
vt 0.4999999 2.463652E-07
vt 0.5333333 1
vt 0.5333332 2.449082E-07
vt 0.5666667 1
vt 0.5666666 2.434511E-07
vt 0.6 1
vt 0.6 2.419941E-07
vt 0.6333334 1
vt 0.6333333 2.40537E-07
vt 0.6666667 1
vt 0.6666667 2.3908E-07
vt 0.7000001 1
vt 0.7 2.376229E-07
vt 0.7333335 1
vt 0.7333334 2.361659E-07
vt 0.7666668 1
vt 0.7666668 2.347088E-07
vt 0.8000002 1
vt 0.8000001 2.332518E-07
vt 0.8333336 1
vt 0.8333335 2.317947E-07
vt 0.8666669 1
vt 0.8666669 2.303377E-07
vt 0.9000003 1
vt 0.9000002 2.288806E-07
vt 0.9333336 1
vt 0.9333336 2.274236E-07
vt 0.966667 1
vt 0.9666669 2.259665E-07
vt 1 1
vt 1 2.245095E-07
vn 0.9772173 -0.2110861 -0.02211507
vn 0.9400012 -0.337576 -0.04939894
vn 0.9758572 -0.2169457 -0.0252443
vn 0.9408522 -0.3353152 -0.04858875
vn 0.8109123 -0.5731689 -0.1178926
vn 0.8099208 -0.5743225 -0.1190876
vn 0.6199085 -0.7560048 -0.2101676
vn 0.6202006 -0.7558209 -0.2099662
vn 0.4028017 -0.8604201 -0.3121347
vn 0.404119 -0.8601914 -0.3110607
vn 0.1916523 -0.8884708 -0.417
vn 0.1933926 -0.8888032 -0.4154855
vn 0.01437338 -0.8553949 -0.5177768
vn 0.01578574 -0.8562319 -0.5163503
vn -0.1113283 -0.786696 -0.6072195
vn -0.110616 -0.7874873 -0.6063232
vn -0.1819509 -0.7121311 -0.6780584
vn -0.1817378 -0.7124169 -0.6778151
vn -0.2085977 -0.6581101 -0.7234488
vn -0.2085159 -0.6580076 -0.7235657
vn -0.2132565 -0.640711 -0.7375711
vn -0.2133757 -0.6407685 -0.7374868
vn -0.221764 -0.6615747 -0.7163376
vn -0.2226969 -0.6621192 -0.7155447
vn -0.2554835 -0.708232 -0.6581303
vn -0.2577896 -0.708922 -0.6564862
vn -0.3244081 -0.7590488 -0.5644504
vn -0.3278731 -0.7591624 -0.5622914
vn -0.4242015 -0.7913185 -0.4403047
vn -0.4277393 -0.7905203 -0.4383113
vn -0.5384478 -0.7896522 -0.2941485
vn -0.5407696 -0.7884738 -0.2930484
vn -0.64539 -0.7514176 -0.1372707
vn -0.6458739 -0.7509539 -0.1375327
vn -0.7264688 -0.6869804 0.01734585
vn -0.7255064 -0.6880363 0.01570124
vn -0.7730643 -0.6147127 0.1565245
vn -0.7716516 -0.6171316 0.1539561
vn -0.7886356 -0.5531247 0.2685276
vn -0.7876096 -0.5558766 0.2658429
vn -0.7856745 -0.5137826 0.3445911
vn -0.7852467 -0.5157256 0.3426583
vn -0.7793693 -0.4980957 0.3801107
vn -0.7792632 -0.4987463 0.3794744
vn -0.78124 -0.498883 0.3752064
vn -0.7811593 -0.4985603 0.3758028
vn -0.7955442 -0.5051839 0.3345126
vn -0.7954462 -0.5045382 0.3357179
vn -0.8194412 -0.5075458 0.2662956
vn -0.8194276 -0.5070239 0.2673296
vn -0.8460156 -0.5014225 0.1811986
vn -0.8461088 -0.50112 0.1816001
vn -0.8682618 -0.4877191 0.09083838
vn -0.8683701 -0.4875596 0.09065907
vn -0.8821595 -0.4709076 0.006375251
vn -0.8822068 -0.470824 0.005992555
vn -0.88772 -0.4560725 -0.06285796
vn -0.8877205 -0.456038 -0.06310072
vn -0.8879898 -0.4465604 -0.1098087
vn -0.8879867 -0.4465767 -0.1097673
vn -0.8872218 -0.443462 -0.1271965
vn -0.8872114 -0.4434802 -0.1272048
vn -0.9818441 -0.1881076 -0.02444632
vn -0.9919739 -0.1217844 -0.03400327
vn -0.9818441 -0.1881076 -0.02444634
vn -0.9927079 -0.1149613 -0.03626104
vn -0.9903793 0.1014828 -0.0940742
vn -0.98926 0.1074258 -0.09911811
vn -0.9037438 0.3759741 -0.2046717
vn -0.9001979 0.3821612 -0.2087979
vn -0.7448925 0.5768479 -0.3352337
vn -0.7559134 0.5688906 -0.3239728
vn -0.5764685 0.6779019 -0.4562161
vn -0.5870692 0.6751948 -0.4466114
vn -0.4334563 0.7084307 -0.5569934
vn -0.4338169 0.7078544 -0.5574452
vn -0.3347432 0.6969509 -0.6341975
vn -0.3304493 0.6936672 -0.6400228
vn -0.2869649 0.6751782 -0.6795481
vn -0.2842543 0.6711923 -0.6846169
vn -0.2800219 0.6736314 -0.6839653
vn -0.2793705 0.6700906 -0.6876995
vn -0.2890024 0.7073497 -0.6450846
vn -0.2893094 0.7039273 -0.6486803
vn -0.2874383 0.7719024 -0.5670501
vn -0.2877493 0.7703934 -0.5689414
vn -0.2589701 0.8518276 -0.4553288
vn -0.2580625 0.8522257 -0.4550989
vn -0.1996636 0.926554 -0.318798
vn -0.1978695 0.927321 -0.3176846
vn -0.118383 0.9784145 -0.1693824
vn -0.117266 0.9786232 -0.1689536
vn -0.03203978 0.9992736 -0.02063371
vn -0.03279331 0.9992244 -0.02180008
vn 0.0419918 0.9925838 0.1140805
vn 0.03957304 0.9929826 0.1114424
vn 0.09275714 0.9703094 0.2233737
vn 0.08994194 0.9712968 0.220211
vn 0.1188756 0.9467323 0.2992766
vn 0.1168831 0.947768 0.2967729
vn 0.1270857 0.9324991 0.3380748
vn 0.126304 0.9329961 0.3369949
vn 0.1277373 0.9315599 0.3404108
vn 0.1278051 0.9314359 0.3407241
vn 0.1299613 0.9415845 0.310691
vn 0.1303362 0.9411975 0.3117047
vn 0.1386589 0.95666 0.2560768
vn 0.1390176 0.9563683 0.2569701
vn 0.1539709 0.9705305 0.1853742
vn 0.1542258 0.9704227 0.1857255
vn 0.1726906 0.9790387 0.1079877
vn 0.1728525 0.9790178 0.1079181
vn 0.1905484 0.9811258 0.03291473
vn 0.1906543 0.9811086 0.0328149
vn 0.2042644 0.9783856 -0.03221319
vn 0.2043582 0.9783705 -0.03207487
vn 0.2126118 0.9736902 -0.08199766
vn 0.2126584 0.973704 -0.08171289
vn 0.2161942 0.9698032 -0.1128798
vn 0.2161928 0.9697806 -0.1130766
vn 0.2170461 0.9681083 -0.1251296
vn 0.2170211 0.9681147 -0.1251238
vn 0.2170663 0.9679003 -0.1266934
vn 0.2170663 0.9679003 -0.1266934
g Plane002_0
f 3/3/3 2/2/2 1/1/1
f 4/4/4 1/1/1 2/2/2
f 2/2/2 5/5/5 4/4/4
f 6/6/6 4/4/4 5/5/5
f 5/5/5 7/7/7 6/6/6
f 8/8/8 6/6/6 7/7/7
f 7/7/7 9/9/9 8/8/8
f 10/10/10 8/8/8 9/9/9
f 9/9/9 11/11/11 10/10/10
f 12/12/12 10/10/10 11/11/11
f 11/11/11 13/13/13 12/12/12
f 14/14/14 12/12/12 13/13/13
f 13/13/13 15/15/15 14/14/14
f 16/16/16 14/14/14 15/15/15
f 15/15/15 17/17/17 16/16/16
f 18/18/18 16/16/16 17/17/17
f 17/17/17 19/19/19 18/18/18
f 20/20/20 18/18/18 19/19/19
f 19/19/19 21/21/21 20/20/20
f 22/22/22 20/20/20 21/21/21
f 21/21/21 23/23/23 22/22/22
f 24/24/24 22/22/22 23/23/23
f 23/23/23 25/25/25 24/24/24
f 26/26/26 24/24/24 25/25/25
f 25/25/25 27/27/27 26/26/26
f 28/28/28 26/26/26 27/27/27
f 27/27/27 29/29/29 28/28/28
f 30/30/30 28/28/28 29/29/29
f 29/29/29 31/31/31 30/30/30
f 32/32/32 30/30/30 31/31/31
f 31/31/31 33/33/33 32/32/32
f 34/34/34 32/32/32 33/33/33
f 33/33/33 35/35/35 34/34/34
f 36/36/36 34/34/34 35/35/35
f 35/35/35 37/37/37 36/36/36
f 38/38/38 36/36/36 37/37/37
f 37/37/37 39/39/39 38/38/38
f 40/40/40 38/38/38 39/39/39
f 39/39/39 41/41/41 40/40/40
f 42/42/42 40/40/40 41/41/41
f 41/41/41 43/43/43 42/42/42
f 44/44/44 42/42/42 43/43/43
f 43/43/43 45/45/45 44/44/44
f 46/46/46 44/44/44 45/45/45
f 45/45/45 47/47/47 46/46/46
f 48/48/48 46/46/46 47/47/47
f 47/47/47 49/49/49 48/48/48
f 50/50/50 48/48/48 49/49/49
f 49/49/49 51/51/51 50/50/50
f 52/52/52 50/50/50 51/51/51
f 51/51/51 53/53/53 52/52/52
f 54/54/54 52/52/52 53/53/53
f 53/53/53 55/55/55 54/54/54
f 56/56/56 54/54/54 55/55/55
f 55/55/55 57/57/57 56/56/56
f 58/58/58 56/56/56 57/57/57
f 57/57/57 59/59/59 58/58/58
f 60/60/60 58/58/58 59/59/59
f 59/59/59 61/61/61 60/60/60
f 62/62/62 60/60/60 61/61/61
f 65/65/65 64/64/64 63/63/63
f 66/66/66 63/63/63 64/64/64
f 64/64/64 67/67/67 66/66/66
f 68/68/68 66/66/66 67/67/67
f 67/67/67 69/69/69 68/68/68
f 70/70/70 68/68/68 69/69/69
f 69/69/69 71/71/71 70/70/70
f 72/72/72 70/70/70 71/71/71
f 71/71/71 73/73/73 72/72/72
f 74/74/74 72/72/72 73/73/73
f 73/73/73 75/75/75 74/74/74
f 76/76/76 74/74/74 75/75/75
f 75/75/75 77/77/77 76/76/76
f 78/78/78 76/76/76 77/77/77
f 77/77/77 79/79/79 78/78/78
f 80/80/80 78/78/78 79/79/79
f 79/79/79 81/81/81 80/80/80
f 82/82/82 80/80/80 81/81/81
f 81/81/81 83/83/83 82/82/82
f 84/84/84 82/82/82 83/83/83
f 83/83/83 85/85/85 84/84/84
f 86/86/86 84/84/84 85/85/85
f 85/85/85 87/87/87 86/86/86
f 88/88/88 86/86/86 87/87/87
f 87/87/87 89/89/89 88/88/88
f 90/90/90 88/88/88 89/89/89
f 89/89/89 91/91/91 90/90/90
f 92/92/92 90/90/90 91/91/91
f 91/91/91 93/93/93 92/92/92
f 94/94/94 92/92/92 93/93/93
f 93/93/93 95/95/95 94/94/94
f 96/96/96 94/94/94 95/95/95
f 95/95/95 97/97/97 96/96/96
f 98/98/98 96/96/96 97/97/97
f 97/97/97 99/99/99 98/98/98
f 100/100/100 98/98/98 99/99/99
f 99/99/99 101/101/101 100/100/100
f 102/102/102 100/100/100 101/101/101
f 101/101/101 103/103/103 102/102/102
f 104/104/104 102/102/102 103/103/103
f 103/103/103 105/105/105 104/104/104
f 106/106/106 104/104/104 105/105/105
f 105/105/105 107/107/107 106/106/106
f 108/108/108 106/106/106 107/107/107
f 107/107/107 109/109/109 108/108/108
f 110/110/110 108/108/108 109/109/109
f 109/109/109 111/111/111 110/110/110
f 112/112/112 110/110/110 111/111/111
f 111/111/111 113/113/113 112/112/112
f 114/114/114 112/112/112 113/113/113
f 113/113/113 115/115/115 114/114/114
f 116/116/116 114/114/114 115/115/115
f 115/115/115 117/117/117 116/116/116
f 118/118/118 116/116/116 117/117/117
f 117/117/117 119/119/119 118/118/118
f 120/120/120 118/118/118 119/119/119
f 119/119/119 121/121/121 120/120/120
f 122/122/122 120/120/120 121/121/121
f 121/121/121 123/123/123 122/122/122
f 124/124/124 122/122/122 123/123/123
