g Plane009
v 0.2590718 -2.08661 2.569601
v -0.04490966 -0.1078665 -0.003952472
v 0.629067 0.0966346 -0.003952472
v 1.741748 -1.695816 2.85088
v 1.203911 0.4933999 -0.003952472
v 2.980251 -0.853228 3.261123
v 4.588265 1.484318 4.140277
v 2.114914 1.80886 -0.003952569
v 3.217743 6.156564 -0.003952569
v 6.14939 7.039751 5.456286
v 3.675551 10.57755 -0.003952569
v 6.966304 13.68594 6.355641
v 3.879944 17.51397 -0.003952666
v 7.459245 25.38581 6.406338
v -0.2910822 -2.100663 2.589261
v 0.01290076 -0.1223164 0.01187832
v -0.6649726 0.08333658 0.01188073
v -1.778377 -1.708319 2.872943
v -1.243108 0.4821919 0.01188513
v -3.020383 -0.8631412 3.287186
v -4.63125 1.478442 4.173811
v -2.15737 1.801633 0.01189519
v -3.261495 6.152542 0.01189673
v -6.193226 7.036167 5.498878
v -3.719514 10.57485 0.01188103
v -7.010333 13.6844 6.403781
v -3.923987 17.51312 0.01186116
v -7.503292 25.38544 6.447433
vt 1.490116E-07 1
vt 1.053002E-07 0
vt 0.0625001 0
vt 0.06250014 1
vt 0.1250001 0
vt 0.1250001 1
vt 0.2500001 1
vt 0.2500001 0
vt 0.5000001 0
vt 0.5000001 1
vt 0.75 0
vt 0.75 1
vt 1 0
vt 1 0.9999999
vt 1.490116E-07 1
vt 1.053002E-07 0
vt 0.0625001 0
vt 0.06250014 1
vt 0.1250001 0
vt 0.1250001 1
vt 0.2500001 1
vt 0.2500001 0
vt 0.5000001 0
vt 0.5000001 1
vt 0.75 0
vt 0.75 1
vt 1 0
vt 1 0.9999999
vn -0.2849578 0.7507699 0.5959393
vn -0.2849578 0.7507699 0.5959393
vn -0.4157525 0.6913473 0.5909221
vn -0.4431499 0.676485 0.5882061
vn -0.6541542 0.5141652 0.5547218
vn -0.6808499 0.4858918 0.5480445
vn -0.8297334 0.2543266 0.4968505
vn -0.81103 0.2946627 0.5053753
vn -0.8768644 0.1249616 0.4642126
vn -0.8825867 0.1043938 0.4584133
vn -0.8919198 0.05401341 0.4489563
vn -0.8917497 0.04344682 0.4504383
vn -0.8914552 0.03212698 0.4519685
vn -0.8914552 0.03212699 0.4519685
vn -0.2854539 -0.751211 -0.5951453
vn -0.2854539 -0.751211 -0.5951454
vn -0.4163709 -0.6917623 -0.5900001
vn -0.4439241 -0.6768156 -0.587241
vn -0.6549489 -0.5144868 -0.5534847
vn -0.6818063 -0.4860395 -0.5467229
vn -0.8306774 -0.2543849 -0.4952406
vn -0.8119167 -0.2948565 -0.5038363
vn -0.8777653 -0.1250239 -0.4624902
vn -0.8834812 -0.104449 -0.4566742
vn -0.8927972 -0.05409552 -0.4471989
vn -0.8926246 -0.04361034 -0.4486865
vn -0.8923272 -0.03233452 -0.4502293
vn -0.8923272 -0.03233452 -0.4502294
g Plane009_0
f 3/3/3 2/2/2 1/1/1
f 1/1/1 4/4/4 3/3/3
f 5/5/5 3/3/3 4/4/4
f 5/5/5 4/4/4 6/6/6
f 5/5/5 6/6/6 7/7/7
f 7/7/7 8/8/8 5/5/5
f 9/9/9 8/8/8 7/7/7
f 9/9/9 7/7/7 10/10/10
f 11/11/11 9/9/9 10/10/10
f 11/11/11 10/10/10 12/12/12
f 13/13/13 11/11/11 12/12/12
f 13/13/13 12/12/12 14/14/14
f 17/17/17 16/16/16 15/15/15
f 15/15/15 18/18/18 17/17/17
f 19/19/19 17/17/17 18/18/18
f 19/19/19 18/18/18 20/20/20
f 19/19/19 20/20/20 21/21/21
f 21/21/21 22/22/22 19/19/19
f 23/23/23 22/22/22 21/21/21
f 23/23/23 21/21/21 24/24/24
f 25/25/25 23/23/23 24/24/24
f 25/25/25 24/24/24 26/26/26
f 27/27/27 25/25/25 26/26/26
f 27/27/27 26/26/26 28/28/28
