g PolyDiamond
v 0 0 0.09999999
v 0 0.09999999 0
v 0.09999999 0 0
v 0 0 0.09999999
v -0.09999999 0 0
v 0 0.09999999 0
v 0 0 0.09999999
v 0 -0.09999999 0
v -0.09999999 0 0
v 0 0 0.09999999
v 0.09999999 0 0
v 0 -0.09999999 0
v 0 0 -0.09999999
v 0.09999999 0 0
v 0 0.09999999 0
v 0 0 -0.09999999
v 0 0.09999999 0
v -0.09999999 0 0
v 0 0 -0.09999999
v -0.09999999 0 0
v 0 -0.09999999 0
v 0 0 -0.09999999
v 0 -0.09999999 0
v 0.09999999 0 0
vt 0.625 1
vt 0.75 0.5
vt 0.5 0.5
vt 0.875 1
vt 1 0.5
vt 0.75 0.5
vt 0.125 1
vt 0.25 0.5
vt 0 0.5
vt 0.375 1
vt 0.5 0.5
vt 0.25 0.5
vt 0.625 0
vt 0.5 0.5
vt 0.75 0.5
vt 0.875 0
vt 0.75 0.5
vt 1 0.5
vt 0.125 0
vt 0 0.5
vt 0.25 0.5
vt 0.375 0
vt 0.25 0.5
vt 0.5 0.5
vn 0.5773503 0.5773503 0.5773503
vn 0.5773503 0.5773503 0.5773503
vn 0.5773503 0.5773503 0.5773503
vn -0.5773503 0.5773503 0.5773503
vn -0.5773503 0.5773503 0.5773503
vn -0.5773503 0.5773503 0.5773503
vn -0.5773503 -0.5773503 0.5773503
vn -0.5773503 -0.5773503 0.5773503
vn -0.5773503 -0.5773503 0.5773503
vn 0.5773503 -0.5773503 0.5773503
vn 0.5773503 -0.5773503 0.5773503
vn 0.5773503 -0.5773503 0.5773503
vn 0.5773503 0.5773503 -0.5773503
vn 0.5773503 0.5773503 -0.5773503
vn 0.5773503 0.5773503 -0.5773503
vn -0.5773503 0.5773503 -0.5773503
vn -0.5773503 0.5773503 -0.5773503
vn -0.5773503 0.5773503 -0.5773503
vn -0.5773503 -0.5773503 -0.5773503
vn -0.5773503 -0.5773503 -0.5773503
vn -0.5773503 -0.5773503 -0.5773503
vn 0.5773503 -0.5773503 -0.5773503
vn 0.5773503 -0.5773503 -0.5773503
vn 0.5773503 -0.5773503 -0.5773503
g PolyDiamond_0
f 3/3/3 2/2/2 1/1/1
f 6/6/6 5/5/5 4/4/4
f 9/9/9 8/8/8 7/7/7
f 12/12/12 11/11/11 10/10/10
f 15/15/15 14/14/14 13/13/13
f 18/18/18 17/17/17 16/16/16
f 21/21/21 20/20/20 19/19/19
f 24/24/24 23/23/23 22/22/22
